<svg width="512" height="512" viewBox="0 0 512 512" xmlns="http://www.w3.org/2000/svg"><defs><linearGradient id="bg" x1="0" y1="0" x2="1" y2="1"><stop offset="0%" stop-color="#1E88E5"/><stop offset="100%" stop-color="#1565C0"/></linearGradient></defs><!-- Background --><rect x="32" y="32" width="448" height="448" rx="96" fill="url(#bg)"/><!-- Shield --><path d="M256 110L360 150V255C360 330 315 385 256 410C197 385 152 330 152 255V150Z"fill="white"opacity="0.95"/><!-- Graduation Cap --><polygon points="256,135 350,175 256,215 162,175"fill="#0D47A1"/><polygon points="330,190 330,245 345,252 345,197"fill="#0D47A1"/><circle cx="345" cy="255" r="8" fill="#FFC107"/><!-- Check Mark --><path d="M205 270L245 310L315 235"fill="none"stroke="#43A047"stroke-width="24"stroke-linecap="round"stroke-linejoin="round"/><!-- Small star --><path d="M256 345L264 362L283 365L269 378L272 397L256 388L240 397L243 378L229 365L248 362 Z"fill="#FFC107"/></svg>
